<?xml version="1.0" encoding="UTF-8"?>
<!-- Created by grConvert v0.1-0 -->
<svg xmlns="http://www.w3.org/2000/svg" xmlns:xlink="http://www.w3.org/1999/xlink" width="274pt" height="355pt" viewBox="0 0 274 355" version="1.1">
<g id="surface2792">
<path style="fill:none;stroke-width:3.2;stroke-linecap:round;stroke-linejoin:miter;stroke:rgb(0%,0%,0%);stroke-opacity:1;stroke-miterlimit:4;" d="M 150.292968 42.316403 L 230.320312 276.078121 C 257.398437 250.441402 272.753905 214.800778 272.781249 177.511715 C 272.773437 107.656247 219.804687 49.191403 150.292968 42.316403 Z M 123.492187 42.449216 C 54.050781 49.339841 1.121094 107.722653 1.050781 177.511715 C 1.113281 214.773434 16.472656 250.37109 43.542969 275.980465 Z M 136.914062 248.101559 L 77.632812 299.574215 C 96.097656 308.597652 116.367187 313.316402 136.914062 313.374996 C 157.480468 313.33984 177.769531 308.636715 196.253906 299.62109 Z M 136.914062 248.101559 " transform="matrix(1,0,0,1,0,0.00000298183)"/>
<path style="fill:none;stroke-width:3.2;stroke-linecap:butt;stroke-linejoin:miter;stroke:rgb(0%,0%,0%);stroke-opacity:1;stroke-miterlimit:4;" d="M 17.628906 351.671871 L 136.914062 3.242185 L 256.199218 351.671871 L 136.914062 248.097652 Z M 17.628906 351.671871 " transform="matrix(1,0,0,1,0,0.00000298183)"/>
<path style="fill:none;stroke-width:3.2;stroke-linecap:butt;stroke-linejoin:miter;stroke:rgb(0%,0%,0%);stroke-opacity:1;stroke-miterlimit:4;" d="M 136.914062 3.242185 L 256.203124 351.667965 L 136.914062 248.097652 Z M 136.914062 3.242185 " transform="matrix(1,0,0,1,0,0.00000298183)"/>
<path style="fill:none;stroke-width:3.2;stroke-linecap:butt;stroke-linejoin:miter;stroke:rgb(0%,0%,0%);stroke-opacity:1;stroke-miterlimit:4;" d="M 136.914062 3.457028 L 137.019531 3.550778 " transform="matrix(1,0,0,1,0,0.00000298183)"/>
<path style="fill:none;stroke-width:3.2;stroke-linecap:butt;stroke-linejoin:miter;stroke:rgb(0%,0%,0%);stroke-opacity:1;stroke-miterlimit:4;" d="M 136.914062 70.179684 L 169.523437 98.492184 " transform="matrix(1,0,0,1,0,0.00000298183)"/>
<path style="fill:none;stroke-width:3.2;stroke-linecap:butt;stroke-linejoin:miter;stroke:rgb(0%,0%,0%);stroke-opacity:1;stroke-miterlimit:4;" d="M 136.914062 129.484372 L 198.417968 182.882809 " transform="matrix(1,0,0,1,0,0.00000298183)"/>
<path style="fill:none;stroke-width:3.2;stroke-linecap:butt;stroke-linejoin:miter;stroke:rgb(0%,0%,0%);stroke-opacity:1;stroke-miterlimit:4;" d="M 136.914062 144.312497 L 205.640624 203.984371 " transform="matrix(1,0,0,1,0,0.00000298183)"/>
<path style="fill:none;stroke-width:3.2;stroke-linecap:butt;stroke-linejoin:miter;stroke:rgb(0%,0%,0%);stroke-opacity:1;stroke-miterlimit:4;" d="M 136.914062 233.273434 L 248.980468 330.574215 " transform="matrix(1,0,0,1,0,0.00000298183)"/>
<path style="fill:none;stroke-width:3.2;stroke-linecap:butt;stroke-linejoin:miter;stroke:rgb(0%,0%,0%);stroke-opacity:1;stroke-miterlimit:4;" d="M 136.914062 10.871091 L 140.632812 14.097653 " transform="matrix(1,0,0,1,0,0.00000298183)"/>
<path style="fill:none;stroke-width:3.2;stroke-linecap:butt;stroke-linejoin:miter;stroke:rgb(0%,0%,0%);stroke-opacity:1;stroke-miterlimit:4;" d="M 136.914062 25.699216 L 147.855468 35.195309 " transform="matrix(1,0,0,1,0,0.00000298183)"/>
<path style="fill:none;stroke-width:3.2;stroke-linecap:butt;stroke-linejoin:miter;stroke:rgb(0%,0%,0%);stroke-opacity:1;stroke-miterlimit:4;" d="M 136.914062 40.523434 L 155.078125 56.292966 " transform="matrix(1,0,0,1,0,0.00000298183)"/>
<path style="fill:none;stroke-width:3.2;stroke-linecap:butt;stroke-linejoin:miter;stroke:rgb(0%,0%,0%);stroke-opacity:1;stroke-miterlimit:4;" d="M 136.914062 55.351559 L 162.300781 77.394528 " transform="matrix(1,0,0,1,0,0.00000298183)"/>
<path style="fill:none;stroke-width:3.2;stroke-linecap:butt;stroke-linejoin:miter;stroke:rgb(0%,0%,0%);stroke-opacity:1;stroke-miterlimit:4;" d="M 136.914062 85.003903 L 176.746093 119.58984 " transform="matrix(1,0,0,1,0,0.00000298183)"/>
<path style="fill:none;stroke-width:3.2;stroke-linecap:butt;stroke-linejoin:miter;stroke:rgb(0%,0%,0%);stroke-opacity:1;stroke-miterlimit:4;" d="M 136.914062 99.832028 L 183.972656 140.687497 " transform="matrix(1,0,0,1,0,0.00000298183)"/>
<path style="fill:none;stroke-width:3.2;stroke-linecap:butt;stroke-linejoin:miter;stroke:rgb(0%,0%,0%);stroke-opacity:1;stroke-miterlimit:4;" d="M 136.914062 114.656247 L 191.195312 161.785153 " transform="matrix(1,0,0,1,0,0.00000298183)"/>
<path style="fill:none;stroke-width:3.2;stroke-linecap:butt;stroke-linejoin:miter;stroke:rgb(0%,0%,0%);stroke-opacity:1;stroke-miterlimit:4;" d="M 136.914062 159.136715 L 212.863281 225.082028 " transform="matrix(1,0,0,1,0,0.00000298183)"/>
<path style="fill:none;stroke-width:3.2;stroke-linecap:butt;stroke-linejoin:miter;stroke:rgb(0%,0%,0%);stroke-opacity:1;stroke-miterlimit:4;" d="M 136.914062 173.96484 L 220.085937 246.179684 " transform="matrix(1,0,0,1,0,0.00000298183)"/>
<path style="fill:none;stroke-width:3.2;stroke-linecap:butt;stroke-linejoin:miter;stroke:rgb(0%,0%,0%);stroke-opacity:1;stroke-miterlimit:4;" d="M 136.914062 188.792965 L 227.312499 267.27734 " transform="matrix(1,0,0,1,0,0.00000298183)"/>
<path style="fill:none;stroke-width:3.2;stroke-linecap:butt;stroke-linejoin:miter;stroke:rgb(0%,0%,0%);stroke-opacity:1;stroke-miterlimit:4;" d="M 136.914062 203.617184 L 234.535156 288.378902 " transform="matrix(1,0,0,1,0,0.00000298183)"/>
<path style="fill:none;stroke-width:3.2;stroke-linecap:butt;stroke-linejoin:miter;stroke:rgb(0%,0%,0%);stroke-opacity:1;stroke-miterlimit:4;" d="M 136.914062 218.445309 L 241.757812 309.476559 " transform="matrix(1,0,0,1,0,0.00000298183)"/>
<path style="fill:none;stroke-width:3.2;stroke-linecap:butt;stroke-linejoin:miter;stroke:rgb(0%,0%,0%);stroke-opacity:1;stroke-miterlimit:4;" d="M 136.914062 248.097652 L 256.203124 351.671871 " transform="matrix(1,0,0,1,0,0.00000298183)"/>
</g>
</svg>